HIERARCHY
ROOT Hips
{
	OFFSET 0.00000 0.00000 0.00000
	CHANNELS 6 Xposition Yposition Zposition Zrotation Yrotation Xrotation 
	JOINT LHipJoint
	{
		OFFSET 0 0 0
		CHANNELS 3 Zrotation Yrotation Xrotation
		JOINT LeftHip
		{
			OFFSET 1.34019 -1.87553 0.90315
			CHANNELS 3 Zrotation Yrotation Xrotation
			JOINT LeftKnee
			{
				OFFSET 2.55316 -7.01474 0.00000
				CHANNELS 3 Zrotation Yrotation Xrotation
				JOINT LeftAnkle
				{
					OFFSET 2.64657 -7.27139 0.00000
					CHANNELS 3 Zrotation Yrotation Xrotation
					JOINT LeftToe
					{
						OFFSET 0.24207 -0.66507 2.14489
						CHANNELS 3 Zrotation Yrotation Xrotation
						End Site
						{
							OFFSET 0.00000 -0.00000 1.12451
						}
					}
				}
			}
		}
	}
	JOINT RHipJoint
	{
		OFFSET 0 0 0
		CHANNELS 3 Zrotation Yrotation Xrotation
		JOINT RightHip
		{
			OFFSET -1.28320 -1.87553 0.90315
			CHANNELS 3 Zrotation Yrotation Xrotation
			JOINT RightKnee
			{
				OFFSET -2.60484 -7.15674 0.00000
				CHANNELS 3 Zrotation Yrotation Xrotation
				JOINT RightAnkle
				{
					OFFSET -2.60296 -7.15159 0.00000
					CHANNELS 3 Zrotation Yrotation Xrotation
					JOINT RightToe
					{
						OFFSET -0.31082 -0.85398 2.28998
						CHANNELS 3 Zrotation Yrotation Xrotation
						End Site
						{
							OFFSET -0.00000 -0.00000 1.21611
						}
					}
				}
			}
		}
	}
	JOINT lowerback
	{
		OFFSET 0 0 0
		CHANNELS 3 Zrotation Yrotation Xrotation
		JOINT Chest
		{
			OFFSET -0.00160 2.05581 -0.15156
			CHANNELS 3 Zrotation Yrotation Xrotation
			JOINT Chest2
			{
				OFFSET 0.04594 2.06326 -0.01617
				CHANNELS 3 Zrotation Yrotation Xrotation
				JOINT lowerneck
				{
					OFFSET 0 0 0
					CHANNELS 3 Zrotation Yrotation Xrotation
					JOINT Neck
					{
						OFFSET 0.03753 1.73883 0.26751
						CHANNELS 3 Zrotation Yrotation Xrotation
						JOINT Head
						{
							OFFSET -0.09795 1.76129 -0.31794
							CHANNELS 3 Zrotation Yrotation Xrotation
							End Site
							{
								OFFSET -0.03611 1.79987 -0.13846
							}
						}
					}
				}
				JOINT LeftCollar
				{
					OFFSET 0 0 0
					CHANNELS 3 Zrotation Yrotation Xrotation
					JOINT LeftShoulder
					{
						OFFSET 3.30667 1.29205 -0.22445
CHANNELS 3 Zrotation Xrotation Yrotation
						JOINT LeftElbow
						{
OFFSET 0 -4.927850 -0.000000
CHANNELS 3 Zrotation Xrotation Yrotation
							JOINT LeftWrist
							{
OFFSET 0 -3.440520 0.000000
CHANNELS 3 Zrotation Xrotation Yrotation
								JOINT lhand
								{
									OFFSET 0 0 0
CHANNELS 3 Zrotation Xrotation Yrotation
									JOINT LFingers
									{
OFFSET 0 -0.654330 0.000000
CHANNELS 3 Zrotation Xrotation Yrotation
										End Site
										{
OFFSET 0 -0.527530 0.000000
										}
									}
								}
								JOINT LThumb
								{
OFFSET 0 0.000000 0.000000
CHANNELS 3 Zrotation Xrotation Yrotation
									End Site
									{
OFFSET 0 -0.535590 0.535590
									}
								}
							}
						}
					}
				}
				JOINT RightCollar
				{
					OFFSET 0 0 0
					CHANNELS 3 Zrotation Yrotation Xrotation
					JOINT RightShoulder
					{
						OFFSET -3.20032 1.49783 -0.27688
CHANNELS 3 Zrotation Xrotation Yrotation
						JOINT RightElbow
						{
OFFSET 0 -5.091810 -0.000000
CHANNELS 3 Zrotation Xrotation Yrotation
							JOINT RightWrist
							{
OFFSET 0 -3.498650 -0.000000
CHANNELS 3 Zrotation Xrotation Yrotation
								JOINT rhand
								{
									OFFSET 0 0 0
CHANNELS 3 Zrotation Xrotation Yrotation
									JOINT RFingers
									{
OFFSET 0 -0.666410 0.000000
CHANNELS 3 Zrotation Xrotation Yrotation
										End Site
										{
OFFSET 0 -0.537280 0.000000
										}
									}
								}
								JOINT RThumb
								{
OFFSET 0 0.000000 0.000000
CHANNELS 3 Zrotation Xrotation Yrotation
									End Site
									{
OFFSET 0 -0.545480 0.545480
									}
								}
							}
						}
					}
				}
			}
		}
	}
}
MOTION
Frames: 8
Frame Time: 0.008333333333333333
1.999784 18.187333 5.546742 -9.873726 4.531101 4.654239 0.000000 0.000000 0.000000 -8.575688 -6.447885 -10.834831 2.444636 9.736440 28.127477 0.321274 9.175718 -17.696231 0.347433 -3.787494 -10.479498 0.000000 0.000000 0.000000 17.858456 -5.972843 -19.211820 -4.363795 -12.629375 37.996482 0.345161 -13.284281 -13.776000 -0.082739 1.855003 -5.105171 -8.056761 -0.833548 12.891933 -3.159149 -2.353948 2.272048 1.596271 -1.052512 -4.640366 6.190850 1.432087 -18.352990 4.439714 -0.828186 19.684496 0.403740 0.587368 9.279133 0.000000 0.000000 0.000000 36.329809 -1.164814 30.332090 19.867511 -30.482349 5.463981 19.731293 -9.931717 3.174082 0.000000 0.000000 0.000000 -7.125000 0.000000 0.000000 -5.238417 26.600628 -2.347535 0.000000 0.000000 0.000000 -79.598641 10.728423 -35.387728 -18.322088 -28.567576 -4.702235 -23.008676 -7.974394 3.923756 0.000000 0.000000 0.000000 7.125000 0.000000 0.000000 2.984129 34.229842 0.789460
2.030049 18.178751 5.607306 -9.368747 4.261403 4.554805 0.000000 0.000000 0.000000 -9.280306 -5.921509 -10.357629 2.385405 9.626403 27.775309 0.344600 8.983897 -17.775482 0.350333 -3.802720 -10.522374 0.000000 0.000000 0.000000 17.291789 -5.563948 -20.130613 -4.317295 -12.571040 37.783346 0.339927 -13.249364 -13.804408 -0.088909 1.923490 -5.294210 -8.067049 -0.777408 12.973664 -3.011668 -2.280027 2.315910 1.747130 -1.016698 -4.638143 6.050786 1.403441 -18.417541 4.187449 -0.775617 19.690081 0.346691 0.573511 9.288441 0.000000 0.000000 0.000000 37.071715 -1.170122 30.305075 19.903331 -30.525680 5.482167 19.908288 -10.056509 3.025893 0.000000 0.000000 0.000000 -7.125000 0.000000 0.000000 -5.108592 26.754313 -2.270418 0.000000 0.000000 0.000000 -79.214061 10.507544 -35.326285 -18.245211 -28.470011 -4.665579 -22.783582 -7.623751 4.091714 0.000000 0.000000 0.000000 7.125000 0.000000 0.000000 3.180007 34.403013 0.828025
2.059786 18.170395 5.668749 -8.897118 3.983130 4.433720 0.000000 0.000000 0.000000 -9.948651 -5.389470 -9.858121 2.326380 9.515195 27.420535 0.364987 8.823174 -17.852483 0.351229 -3.807647 -10.536188 0.000000 0.000000 0.000000 16.778785 -5.161385 -21.032436 -4.261145 -12.500040 37.524677 0.336012 -13.191940 -13.761739 -0.094935 1.987431 -5.470894 -8.023486 -0.718910 13.079587 -2.859722 -2.197411 2.365920 1.871822 -0.977161 -4.645970 5.936154 1.384454 -18.468538 3.917636 -0.709211 19.657215 0.280899 0.564430 9.282118 0.000000 0.000000 0.000000 37.739006 -1.154207 30.146078 19.946297 -30.577614 5.504028 20.089647 -10.269926 2.878851 0.000000 0.000000 0.000000 -7.125000 0.000000 0.000000 -4.975038 26.906931 -2.192805 0.000000 0.000000 0.000000 -78.825561 10.315182 -35.254275 -18.161653 -28.363619 -4.625797 -22.456831 -7.111639 4.269859 0.000000 0.000000 0.000000 7.125000 0.000000 0.000000 3.461444 34.582395 0.886395
2.088349 18.162475 5.730797 -8.453762 3.717711 4.303187 0.000000 0.000000 0.000000 -10.581389 -4.880631 -9.349439 2.268450 9.404149 27.067893 0.381561 8.696577 -17.919950 0.351689 -3.810128 -10.543194 0.000000 0.000000 0.000000 16.316694 -4.761982 -21.916170 -4.193007 -12.412831 37.208622 0.331635 -13.111713 -13.681116 -0.102060 2.059967 -5.671438 -7.928909 -0.665478 13.211398 -2.707284 -2.117283 2.414151 1.969677 -0.938926 -4.671896 5.859372 1.375751 -18.508734 3.630776 -0.632901 19.593253 0.204142 0.559840 9.263319 0.000000 0.000000 0.000000 38.297138 -1.122104 29.886054 19.994673 -30.635931 5.528654 20.256226 -10.524045 2.732537 0.000000 0.000000 0.000000 -7.125000 0.000000 0.000000 -4.852552 27.059453 -2.120979 0.000000 0.000000 0.000000 -78.443328 10.155145 -35.218065 -18.068585 -28.244963 -4.581716 -21.953450 -6.329572 4.410679 0.000000 0.000000 0.000000 7.125000 0.000000 0.000000 3.886895 34.713190 0.983447
2.115285 18.155251 5.793449 -8.037080 3.481877 4.177420 0.000000 0.000000 0.000000 -11.176160 -4.413101 -8.846691 2.211689 9.293775 26.718643 0.393789 8.603647 -17.970501 0.353442 -3.819576 -10.569631 0.000000 0.000000 0.000000 15.904690 -4.365590 -22.785503 -4.111318 -12.306988 36.826987 0.326738 -13.015232 -13.580183 -0.110968 2.147697 -5.913958 -7.786344 -0.625678 13.360982 -2.555194 -2.050305 2.454852 2.042846 -0.906940 -4.716351 5.814536 1.373767 -18.535456 3.344655 -0.555087 19.515921 0.122603 0.557979 9.238070 0.000000 0.000000 0.000000 38.719088 -1.083705 29.598721 20.038527 -30.688797 5.551035 20.384612 -10.739755 2.591391 0.000000 0.000000 0.000000 -7.125000 0.000000 0.000000 -4.758903 27.207379 -2.063195 0.000000 0.000000 0.000000 -78.078030 10.014369 -35.245862 -17.970496 -28.119390 -4.535345 -21.282795 -5.303709 4.477680 0.000000 0.000000 0.000000 7.125000 0.000000 0.000000 4.445503 34.756729 1.120775
2.140542 18.148459 5.857104 -7.648825 3.277876 4.067420 0.000000 0.000000 0.000000 -11.731148 -3.992319 -8.356085 2.155676 9.182981 26.369539 0.401134 8.549970 -18.003186 0.357331 -3.840237 -10.627609 0.000000 0.000000 0.000000 15.541130 -3.968636 -23.637201 -4.014184 -12.179097 36.368812 0.323018 -12.916433 -13.449993 -0.121829 2.249786 -6.196573 -7.597483 -0.604466 13.513395 -2.402494 -2.001577 2.486335 2.093879 -0.883971 -4.772208 5.796531 1.375946 -18.536194 3.071692 -0.480360 19.436636 0.040854 0.557969 9.208039 0.000000 0.000000 0.000000 38.971769 -1.048447 29.370816 20.065806 -30.721498 5.564895 20.442844 -10.851928 2.476959 0.000000 0.000000 0.000000 -7.125000 0.000000 0.000000 -4.718003 27.328213 -2.031884 0.000000 0.000000 0.000000 -77.743177 9.873940 -35.299261 -17.891887 -28.018481 -4.498304 -20.587678 -4.270201 4.492821 0.000000 0.000000 0.000000 7.125000 0.000000 0.000000 5.019965 34.743240 1.268215
2.164392 18.141833 5.922492 -7.284970 3.093915 3.974382 0.000000 0.000000 0.000000 -12.255714 -3.613778 -7.865858 2.098642 9.068589 26.010036 0.403236 8.546895 -18.024686 0.362458 -3.867614 -10.704448 0.000000 0.000000 0.000000 15.214373 -3.565303 -24.459097 -3.900828 -12.027138 35.828295 0.323718 -12.833180 -13.264686 -0.133883 2.358056 -6.496387 -7.371266 -0.600115 13.652442 -2.247723 -1.967677 2.513111 2.128238 -0.868802 -4.825519 5.807526 1.382434 -18.499839 2.800000 -0.405449 19.351703 -0.045348 0.559976 9.169852 0.000000 0.000000 0.000000 39.033645 -1.014704 29.233071 20.078164 -30.736310 5.571222 20.417842 -10.868554 2.397747 0.000000 0.000000 0.000000 -7.125000 0.000000 0.000000 -4.739879 27.412753 -2.031858 0.000000 0.000000 0.000000 -77.452466 9.714940 -35.322125 -17.854317 -27.970207 -4.480663 -20.053115 -3.506575 4.501571 0.000000 0.000000 0.000000 7.125000 0.000000 0.000000 5.461144 34.729800 1.382240
2.187278 18.135366 5.990692 -6.934880 2.920397 3.894168 0.000000 0.000000 0.000000 -12.767899 -3.277931 -7.350671 2.037854 8.944385 25.621669 0.399302 8.611567 -18.042843 0.367205 -3.892402 -10.774172 0.000000 0.000000 0.000000 14.904890 -3.154040 -25.232150 -3.770486 -11.848303 35.197805 0.332973 -12.788573 -12.982376 -0.145239 2.456048 -6.767914 -7.122256 -0.610155 13.765411 -2.090190 -1.945967 2.539977 2.154031 -0.860507 -4.863889 5.860061 1.395967 -18.417832 2.495513 -0.321306 19.246435 -0.148506 0.564893 9.116912 0.000000 0.000000 0.000000 38.882208 -0.963385 29.160729 20.087862 -30.748120 5.576210 20.308565 -10.832485 2.350548 0.000000 0.000000 0.000000 -7.125000 0.000000 0.000000 -4.825436 27.464416 -2.062879 0.000000 0.000000 0.000000 -77.223119 9.519532 -35.299836 -17.864475 -27.983344 -4.485503 -19.782606 -3.128788 4.522532 0.000000 0.000000 0.000000 7.125000 0.000000 0.000000 5.685963 34.740368 1.438125
